<?xml version="1.0" encoding="UTF-8" standalone="no"?>
<svg
   xmlns:dc="http://purl.org/dc/elements/1.1/"
   xmlns:cc="http://creativecommons.org/ns#"
   xmlns:rdf="http://www.w3.org/1999/02/22-rdf-syntax-ns#"
   xmlns:svg="http://www.w3.org/2000/svg"
   xmlns="http://www.w3.org/2000/svg"
   xmlns:sodipodi="http://sodipodi.sourceforge.net/DTD/sodipodi-0.dtd"
   xmlns:inkscape="http://www.inkscape.org/namespaces/inkscape"
   inkscape:version="0.92.5 (2060ec1f9f, 2020-04-08)"
   sodipodi:docname="logo.svg"
   id="svg40"
   xml:space="preserve"
   viewBox="0 0 400 400"
   y="0px"
   x="0px"
   version="1.1"
   width="400"
   height="400"
   inkscape:export-filename="/home/rob/programming/workspace/js/VS Code/vscode-javascript-snippets/img/logo.png"
   inkscape:export-xdpi="72"
   inkscape:export-ydpi="72"><metadata
   id="metadata46"><rdf:RDF><cc:Work
       rdf:about=""><dc:format>image/svg+xml</dc:format><dc:type
         rdf:resource="http://purl.org/dc/dcmitype/StillImage" /><dc:title /></cc:Work></rdf:RDF></metadata><defs
   id="defs44"><inkscape:path-effect
     effect="powerstroke"
     id="path-effect915"
     is_visible="true"
     lpeversion="1"
     offset_points="0,1.5"
     sort_points="true"
     interpolator_type="CubicBezierJohan"
     interpolator_beta="0.2"
     start_linecap_type="zerowidth"
     linejoin_type="extrp_arc"
     miter_limit="4"
     scale_width="1"
     end_linecap_type="zerowidth" /><filter
     style="color-interpolation-filters:sRGB;"
     inkscape:label="Drop Shadow"
     id="filter4874"><feFlood
       flood-opacity="0.313726"
       flood-color="rgb(0,0,0)"
       result="flood"
       id="feFlood4864" /><feComposite
       in="flood"
       in2="SourceGraphic"
       operator="in"
       result="composite1"
       id="feComposite4866" /><feGaussianBlur
       in="composite1"
       stdDeviation="8"
       result="blur"
       id="feGaussianBlur4868" /><feOffset
       dx="0"
       dy="0"
       result="offset"
       id="feOffset4870" /><feComposite
       in="SourceGraphic"
       in2="offset"
       operator="over"
       result="composite2"
       id="feComposite4872" /></filter></defs><sodipodi:namedview
   inkscape:current-layer="svg40"
   inkscape:window-maximized="1"
   inkscape:window-y="0"
   inkscape:window-x="0"
   inkscape:cy="132.23316"
   inkscape:cx="328.85231"
   inkscape:zoom="0.9683336"
   showgrid="false"
   id="namedview42"
   inkscape:window-height="1043"
   inkscape:window-width="1920"
   inkscape:pageshadow="2"
   inkscape:pageopacity="0"
   guidetolerance="10"
   gridtolerance="10"
   objecttolerance="10"
   borderopacity="1"
   bordercolor="#666666"
   pagecolor="#ffffff"
   inkscape:document-rotation="0" /><rect
   style="opacity:1;fill:#00ff00;fill-opacity:1;stroke:none;stroke-width:3.0025847;stroke-linecap:square;stroke-linejoin:miter;stroke-miterlimit:4;stroke-dasharray:none;stroke-dashoffset:0;stroke-opacity:1;paint-order:normal"
   id="rect4876"
   width="402.06717"
   height="400"
   x="0"
   y="1.4305115e-06"
   rx="50"
   ry="50" /><path
   inkscape:connector-curvature="0"
   d="m 183.78121,124.99904 c 0,2.7775 1.06562,5.36937 3.00437,7.30812 1.91125,1.90438 4.57872,3.00438 7.3081,3.00438 h 10.3125 c 3.795,0 6.875,3.08 6.875,6.875 v 18.49375 h 18.975 v -3.4375 c 0,-13.26875 10.79375,-24.0625 24.0625,-24.0625 6.44876,0 12.49876,2.49562 17.03626,7.03312 4.53062,4.53063 7.02625,10.58063 7.02625,17.02938 v 3.4375 h 28.60688 c 4.69562,-8.09188 7.41812,-17.46938 7.41812,-27.5 0,-23.13438 -14.29312,-42.893141 -34.51938,-51.019391 -1.49187,-21.422497 -19.29812,-38.355625 -41.10563,-38.355625 -10.58062,0 -20.19875,4.008128 -27.5,10.560007 v 53.446259 c 0,3.795 -3.08,6.875 -6.875,6.875 h -10.3125 c -5.6856,0 -10.31247,4.62687 -10.31247,10.3125 z"
   id="path2"
   style="stroke-width:6.87500095" /><path
   inkscape:connector-curvature="0"
   d="m 101.82431,160.68029 h 32.18189 c 3.795,0 6.875,3.08 6.875,6.875 v 10.3125 c 0,5.68563 4.62688,10.3125 10.3125,10.3125 2.7775,0 5.36938,-1.06562 7.30125,-3.00437 1.93875,-1.93875 3.01125,-4.5375 3.01125,-7.30813 v -10.3125 c 0,-3.795 3.08,-6.875 6.875,-6.875 h 29.14998 v -11.61875 h -3.4375 c -6.44185,0 -12.49185,-2.49563 -17.02935,-7.02625 -4.5375,-4.54438 -7.03313,-10.5875 -7.03313,-17.03625 0,-13.26875 10.79376,-24.06251 24.06248,-24.06251 h 3.4375 V 54.365281 c -7.30125,-6.551879 -16.91935,-10.560007 -27.49998,-10.560007 -21.8075,0 -39.61375,16.933128 -41.10563,38.355625 -20.22626,8.12625 -34.519386,27.885011 -34.519386,51.019391 0,10.03062 2.7225,19.40812 7.418126,27.5 z"
   id="path4"
   style="stroke-width:6.87500095" /><text
   id="text862"
   y="356.12997"
   x="140.90242"
   style="font-style:normal;font-variant:normal;font-weight:normal;font-stretch:normal;font-size:106.66699982px;line-height:100px;font-family:'JetBrains Mono';-inkscape-font-specification:'JetBrains Mono, Normal';font-variant-ligatures:normal;font-variant-caps:normal;font-variant-numeric:normal;writing-mode:lr-tb;fill:#000000;fill-opacity:1;fill-rule:evenodd;stroke:none;stroke-width:3.0983901;stroke-linecap:square;stroke-linejoin:round;stroke-opacity:1;paint-order:stroke fill markers"
   xml:space="preserve"><tspan
     style="font-style:normal;font-variant:normal;font-weight:bold;font-stretch:normal;font-size:80px;font-family:'JetBrains Mono';-inkscape-font-specification:'JetBrains Mono, Normal';font-variant-ligatures:normal;font-variant-caps:normal;font-variant-numeric:normal;fill:#000000;fill-opacity:1;stroke:none;stroke-width:3.0983901;stroke-opacity:1"
     y="356.12997"
     x="140.90242"
     id="tspan860"
     sodipodi:role="line">==&gt;</tspan></text>

<path
   inkscape:connector-curvature="0"
   d="m 306.98807,174.43029 h -35.48188 c -3.795,0 -6.875,-3.08 -6.875,-6.875 v -10.3125 c 0,-2.7775 -1.06563,-5.36938 -3.00438,-7.30813 -1.93875,-1.93875 -4.53063,-3.00437 -7.30813,-3.00437 -5.68562,0 -10.3125,4.62687 -10.3125,10.3125 v 10.3125 c 0,3.795 -3.08,6.875 -6.875,6.875 h -25.85 v 22.75625 h 3.4375 c 13.26875,0 24.0625,10.79376 24.0625,24.06251 0,6.44875 -2.49562,12.49188 -7.03312,17.02938 -4.5375,4.5375 -10.58751,7.03312 -17.02938,7.03312 h -3.4375 v 33.46063 c 6.07062,3.5475 13.08312,5.65813 20.625,5.65813 18.44563,0 34.05188,-12.10688 39.33188,-28.80626 24.68126,-5.4175 43.16813,-27.38313 43.16813,-53.69375 0,-10.03063 -2.7225,-19.40813 -7.41812,-27.50001 z"
   id="path6"
   style="stroke-width:6.87500095" />

<text
   id="text882"
   y="508.24045"
   x="273.88513"
   style="font-style:normal;font-variant:normal;font-weight:normal;font-stretch:normal;font-size:96px;line-height:60px;font-family:'JetBrains Mono';-inkscape-font-specification:'JetBrains Mono, Normal';font-variant-ligatures:normal;font-variant-caps:normal;font-variant-numeric:normal;font-variant-east-asian:normal;writing-mode:lr-tb;fill:#ff0707;fill-opacity:1;fill-rule:evenodd;stroke:#f21c1c;stroke-width:3;stroke-linecap:square;stroke-linejoin:round;stroke-opacity:1;paint-order:stroke fill markers"
   xml:space="preserve"><tspan
     y="508.24045"
     x="273.88513"
     id="tspan880"
     sodipodi:role="line" /></text>



<text
   id="text921"
   y="352.23886"
   x="230.82587"
   style="font-style:normal;font-variant:normal;font-weight:normal;font-stretch:normal;font-size:133.333px;line-height:60px;font-family:'JetBrains Mono';-inkscape-font-specification:'JetBrains Mono, Normal';font-variant-ligatures:normal;font-variant-caps:normal;font-variant-numeric:normal;font-variant-east-asian:normal;writing-mode:lr-tb;fill:#000000;fill-opacity:1;fill-rule:evenodd;stroke:#030000;stroke-width:3;stroke-linecap:square;stroke-linejoin:round;stroke-opacity:1;paint-order:stroke fill markers"
   xml:space="preserve"><tspan
     y="352.23886"
     x="230.82587"
     id="tspan919"
     sodipodi:role="line" /></text>



<text
   xml:space="preserve"
   style="font-style:normal;font-variant:normal;font-weight:normal;font-stretch:normal;font-size:96px;line-height:90.0003px;font-family:'JetBrains Mono';-inkscape-font-specification:'JetBrains Mono, Normal';font-variant-ligatures:normal;font-variant-caps:normal;font-variant-numeric:normal;font-variant-east-asian:normal;writing-mode:lr-tb;fill:#000000;fill-opacity:1;fill-rule:evenodd;stroke:none;stroke-width:3;stroke-linecap:square;stroke-linejoin:round;stroke-opacity:1;paint-order:stroke fill markers"
   x="38.645134"
   y="321.01733"
   id="text862-5"><tspan
     sodipodi:role="line"
     id="tspan860-7"
     x="38.645134"
     y="321.01733"
     style="font-style:normal;font-variant:normal;font-weight:normal;font-stretch:normal;font-size:96px;font-family:'JetBrains Mono';-inkscape-font-specification:'JetBrains Mono, Normal';font-variant-ligatures:normal;font-variant-caps:normal;font-variant-numeric:normal;font-variant-east-asian:normal;fill:#000000;stroke:none;stroke-opacity:1" /></text>



<path
   inkscape:connector-curvature="0"
   d="m 101.82431,174.43029 c -4.695626,8.09188 -7.418126,17.46938 -7.418126,27.50001 0,26.31062 18.486876,48.27625 43.168136,53.69375 5.28001,16.69938 20.88626,28.80626 39.33188,28.80626 7.54188,0 14.55435,-2.11063 20.62498,-5.65813 v -40.33563 c 0,-3.795 3.08,-6.875 6.875,-6.875 h 10.3125 c 2.72937,0 5.39687,-1.1 7.30812,-3.01125 1.93875,-1.93188 3.00438,-4.52375 3.00438,-7.30125 0,-5.68563 -4.62688,-10.3125 -10.3125,-10.3125 h -10.3125 c -3.795,0 -6.875,-3.08 -6.875,-6.875 V 174.43029 H 175.2562 v 3.4375 c 0,6.44875 -2.49562,12.49188 -7.03312,17.02938 -4.53063,4.5375 -10.58063,7.03313 -17.02938,7.03313 -13.26875,0 -24.0625,-10.79376 -24.0625,-24.06251 v -3.4375 z"
   id="path8"
   style="stroke-width:6.87500095" /><text
   xml:space="preserve"
   style="font-style:normal;font-variant:normal;font-weight:normal;font-stretch:normal;font-size:80px;line-height:1.25;font-family:sans-serif;-inkscape-font-specification:sans-serif;font-variant-ligatures:normal;font-variant-caps:normal;font-variant-numeric:normal;font-feature-settings:normal;text-align:start;writing-mode:lr-tb;text-anchor:start;opacity:1;fill:#000000;fill-opacity:1;stroke:none;stroke-width:3;stroke-linecap:square;stroke-linejoin:miter;stroke-miterlimit:4;stroke-dasharray:none;stroke-dashoffset:0;stroke-opacity:1;paint-order:normal"
   x="-55.765903"
   y="357.65921"
   id="text4780"><tspan
     sodipodi:role="line"
     id="tspan4778"
     x="-55.765903"
     y="428.44046" /></text>

<flowRoot
   xml:space="preserve"
   id="flowRoot4782"
   style="line-height:1.25;fill:#000000;stroke:none;stroke-width:3;stroke-miterlimit:4;stroke-dasharray:none;stroke-opacity:1;fill-opacity:1;opacity:1;font-size:80px;-inkscape-font-specification:sans-serif;font-family:sans-serif;font-weight:normal;font-style:normal;font-stretch:normal;font-variant:normal;text-anchor:start;text-align:start;writing-mode:lr;font-variant-ligatures:normal;font-variant-caps:normal;font-variant-numeric:normal;font-feature-settings:normal;stroke-linecap:square;stroke-dashoffset:0;paint-order:normal;stroke-linejoin:miter"><flowRegion
     id="flowRegion4784"><rect
       id="rect4786"
       width="636.14441"
       height="309.81058"
       x="-142.51286"
       y="1.3770461" /></flowRegion><flowPara
     id="flowPara4788" /></flowRoot></svg>